<?xml version="1.0" encoding="UTF-8" standalone="no"?>
<!-- Created with Inkscape (http://www.inkscape.org/) -->
<svg id="svg2" xmlns:rdf="http://www.w3.org/1999/02/22-rdf-syntax-ns#" xmlns="http://www.w3.org/2000/svg" height="2e3" width="2e3" version="1.1" xmlns:cc="http://creativecommons.org/ns#" xmlns:dc="http://purl.org/dc/elements/1.1/" viewBox="0 0 2000 2000">
 <defs id="defs4">
  <clipPath id="clipPath16439" clipPathUnits="userSpaceOnUse">
   <path id="path16441" transform="matrix(1.0494 -.23503 .27190 .91079 -83.396 1175.8)" fill="#217dbb" d="m1771.4 812.36-1020.4 281.84-754.33-742.89 266.19-1024.7 1020.4-281.76l754.29 742.86z"/>
  </clipPath>
  <clipPath id="clipPath16452" clipPathUnits="userSpaceOnUse">
   <path id="path16454" transform="matrix(1.0494 -.23503 .27190 .91079 -83.396 1175.8)" fill="#217dbb" d="m1771.4 812.36-1020.4 281.84-754.33-742.89 266.19-1024.7 1020.4-281.76l754.29 742.86z"/>
  </clipPath>
 </defs>
 <metadata id="metadata7">
  <rdf:RDF>
   <cc:Work rdf:about="">
    <dc:format>image/svg+xml</dc:format>
    <dc:type rdf:resource="http://purl.org/dc/dcmitype/StillImage"/>
    <dc:title/>
   </cc:Work>
  </rdf:RDF>
 </metadata>
 <g id="layer3">
  <path id="path4222" d="m1771.4 812.36-1020.4 281.84-754.33-742.89 266.19-1024.7 1020.4-281.76l754.29 742.86z" transform="matrix(1.0494 -.23503 .27190 .91079 -83.396 1175.8)" fill="#ff9800"/>
  <path id="rect16443" d="m1003.6-0.71428 997.8 502.14-1004.3 498.57l-990-500z" clip-path="url(#clipPath16452)" fill-opacity=".25490" fill="#fff"/>
 </g>
 <g id="layer2">
  <path id="path10325" d="m130.56 633.6v186.63l3.9785 3.5781v0.40235l3.9727 3.5723v0.39844l3.9648 3.5644v0.40039l3.9551 3.5566v0.40039l3.9492 3.5508v0.39648l3.9394 3.543v0.39649l3.9316 3.5352v0.39844l3.9258 3.5293v0.39453l3.916 3.5215v0.39453l3.9082 3.5137v0.39454l3.9004 3.5078v0.39258l3.8926 3.5v0.39257l3.8848 3.4941v0.39063l3.875 3.4844v0.39258l3.8691 3.4785v0.38867l3.8613 3.4727v0.38867l3.8516 3.4629v0.39062l3.8457 3.459v0.38476l3.8359 3.4492v0.38672l3.8281 3.4434v0.38672l3.8223 3.4375v0.38281l3.8125 3.4277v0.38476l3.8027 3.4199v0.38477l3.7969 3.4141v0.38282l3.7891 3.4082v0.38086l3.7812 3.4004v0.38086l3.7734 3.3926v0.3789l3.7637 3.3848v0.38086l3.7578 3.3789v0.37891l3.75 3.373v0.375l3.7402 3.3633v0.37695l3.7324 3.3555v0.37891l3.7266 3.3516v0.37305l3.7168 3.3418v0.375l3.709 3.3359v0.37305l3.7012 3.3281v0.37305l3.6934 3.3203v0.37305l3.6856 3.3144v0.37109l3.6758 3.3047v0.37305l3.6699 3.3008v0.36914l3.6621 3.293v0.36719l3.6524 3.2852v0.36914l3.6445 3.2774v0.36719l3.6387 3.2715v0.36523l3.6289 3.2637v0.36718l3.623 3.2578v0.36328l3.6133 3.25v0.36328l3.6055 3.2422v0.3633l3.5977 3.2344v0.3633l3.5898 3.2285v0.3613l3.5801 3.2187v0.3633l3.5742 3.2149v0.3593l3.5664 3.2071v0.3574l3.5566 3.1992v0.3594l3.5508 3.1934v0.3554l3.541 3.1836v0.3594l3.5332 3.1777v0.3555l3.5273 3.1719v0.3535l3.5176 3.164v0.3536l3.5098 3.1562v0.3535l3.502 3.1485v0.3554l3.4941 3.1426v0.3496l3.4863 3.1348v0.3515l3.4766 3.127v0.3516l3.4707 3.1211v0.3496l3.4629 3.1133v0.3476l3.4551 3.1074v0.3477l3.4453 3.0976v0.3477l3.4375 3.0918v0.3476l3.4316 3.086v0.3437l3.4219 3.0762v0.3457l3.4141 3.0703v0.3438l3.4062 3.0625v0.3437l3.3984 3.0567v0.3418l3.3906 3.0488v0.3418l3.3828 3.043v0.3398l3.373 3.0332v0.3418l3.3672 3.0273v0.3399l3.3594 3.0215v0.3359l3.3496 3.0117v0.3399l3.3438 3.0078v0.334l3.334 2.998v0.336l3.3262 2.9902v0.3379l3.3184 2.9844v0.3339l3.3106 2.9766v0.334l3.3027 2.9707v0.332l3.2949 2.9629v0.332l3.2871 2.9551v0.3321l3.2793 2.9492v0.33l3.2715 2.9415v0.3281l3.2617 2.9336v0.33l3.2559 2.9278v0.3262l3.2461 2.9199v0.3281l3.2402 2.9141v0.3242l3.2305 2.9043v0.3281l3.2227 2.8984v0.3243l3.2148 2.8906v0.3242l3.207 2.8848v0.3222l3.1992 2.877v0.3223l3.1914 2.8691v0.3223l3.1836 2.8632v0.3204l3.1758 2.8554v0.3184l3.168 2.8496v0.3184l3.1582 2.8398v0.3203l3.1524 2.834v0.3164l3.1426 2.8262v0.3183l3.1367 2.8203v0.3145l3.127 2.8125v0.3144l3.1191 2.8047v0.3145l3.1113 2.7988v0.3145l3.1035 2.791v0.3125l3.0957 2.7832v0.3125l3.0879 2.7773v0.3086l3.0801 2.7696v0.3105l3.0703 2.7617v0.3106l3.0644 2.7558v0.3086l3.0566 2.7481v0.3066l3.0469 2.7402v0.3086l3.0391 2.7325v0.3066l3.0332 2.7285v0.3028l3.0234 2.7187v0.3047l3.0156 2.7109v0.3067l3.0078 2.705v0.3028l3 2.6972v0.3028l2.9922 2.6914v0.3008l2.9844 2.6836v0.2988l2.9766 2.6758v0.3008l2.9668 2.6679v0.3008l2.9609 2.6621v0.2969l2.9512 2.6543v0.2988l2.9453 2.6485v0.2949l2.9356 2.6406v0.2969l2.9297 2.6347v0.293l2.9199 2.625v0.2949l2.9121 2.6192v0.2929l2.9043 2.6114v0.2929l2.8965 2.6055v0.291l2.8887 2.5977v0.291l2.8809 2.5898v0.291l2.8711 2.5821v0.291l2.8652 2.5762v0.2871l2.8555 2.5683v0.2891l2.8496 2.5625v0.2852l2.8398 2.5546v0.2872l2.834 2.5488v0.2832l2.8242 2.539v0.2852l2.8164 2.5332v0.2852l2.8086 2.5254v0.2832l2.8008 2.5195v0.2812l2.793 2.5118v0.2812l2.7852 2.5039v0.2793l2.7773 2.4981v0.2793l2.7676 2.4882v0.2813l2.7617 2.4844v0.2753l2.752 2.4747v0.2793l2.7461 2.4687v0.2754l2.7363 2.4609v0.2774l2.7285 2.4531v0.2754l2.7226 2.4492v0.2715l2.7129 2.4394v0.2735l2.7051 2.4316v0.2735l2.6973 2.4257v0.2715l2.6894 2.418v0.2715l2.6816 2.4121v0.2695l2.6719 2.4024v0.2715l2.666 2.3964v0.2696l2.6582 2.3906v0.2656l2.6484 2.3809v0.2695l2.6426 2.377v0.2636l2.6328 2.3672v0.2656l2.625 2.3614v0.2656l2.6172 2.3535v0.2637l2.6094 2.3457v0.2637l2.6016 2.3398v0.2617l2.5938 2.3321v0.2617l2.5859 2.3261v0.2598l2.5781 2.3184v0.2578l2.5684 2.3105v0.2598l2.5625 2.3047v0.2578l2.5547 2.2969v0.2558l2.5449 2.2891v0.2578l2.5391 2.2832v0.2539l2.5293 2.2754v0.2539l2.5215 2.2676v0.2558l2.5137 2.2598v0.2539l2.5059 2.2539v0.252l2.498 2.2461v0.2519l2.4902 2.2403v0.25l2.4824 2.2324v0.248l2.4746 2.2246v0.25l2.4648 2.2168v0.25l2.459 2.211v0.2461l2.4492 2.2031v0.248l2.4434 2.1973v0.2441l2.4336 2.1875v0.2481l2.4258 2.1816v0.2442l2.4199 2.1758v0.2421l2.4102 2.168v0.2422l2.4023 2.1602v0.2421l2.3945 2.1524v0.2422l2.3867 2.1465v0.2402l2.377 2.1367v0.2422l2.3711 2.1328v0.2363l2.3633 2.125v0.2383l2.3535 2.1172v0.2383l2.3476 2.1113v0.2344l2.3379 2.1016v0.2363l2.3301 2.0957v0.2363l2.3242 2.0899v0.2324l2.3144 2.082v0.2324l2.3066 2.0743v0.2324l2.2988 2.0664v0.2324l2.291 2.0606v0.2304l2.2812 2.0508v0.2324l2.2754 2.0469v0.2285l2.2676 2.0391v0.2265l2.2578 2.0313v0.2285l2.252 2.0254v0.2246l2.2422 2.0156v0.2285l2.2363 2.0118v0.2226l2.2266 2.002v0.2246l2.2188 1.9961v0.2246l2.2109 1.9883v0.2226l2.2031 1.9805v0.2226l2.1953 1.9747v0.2207l2.1875 1.9668v0.2207l2.1797 1.9609v0.2168l2.1719 1.9531v0.2188l2.1621 1.9433v0.2207l2.1562 1.9395v0.2148l2.1465 1.9297v0.2188l2.1387 1.9238v0.2148l2.1328 1.918v0.2129l2.123 1.9082v0.2168l2.1152 1.9023v0.2129l2.1074 1.8946v0.2129l2.0996 1.8886v0.211l2.0918 1.8808v0.211l2.084 1.873v0.2109l2.0762 1.8672v0.2071l2.0664 1.8574v0.2109l2.0605 1.8535v0.2071l2.0527 1.8457v0.2051l2.043 1.8378v0.2071l2.0371 1.832v0.2031l2.0273 1.8223v0.2051l2.0195 1.8164v0.2031l2.0117 1.8086v0.2051l2.0039 1.8027v0.2012l1.9961 1.7949v0.2012l1.9883 1.7871v0.1992l1.9805 1.7813v0.1992l1.9707 1.7715v0.2011l1.9648 1.7676v0.1973l1.957 1.7597v0.1954l1.9473 1.7519v0.1973l1.9414 1.7461v0.1933l1.9316 1.7364v0.1953l1.9238 1.7304v0.1953l1.916 1.7227v0.1934l1.9082 1.7168v0.1914l1.9004 1.7089v0.1915l1.8926 1.7011v0.1914l1.8848 1.6953v0.1895l1.877 1.6875v0.1875l1.8692 1.6816v0.1875l1.8594 1.6719v0.1895l1.8535 1.666v0.1855l1.8438 1.6582v0.1875l1.8359 1.6504v0.1856l1.8301 1.6465v0.1816l1.8203 1.6367v0.1836l1.8125 1.6309v0.1836l1.8047 1.623v0.1816l1.7969 1.6153v0.1816l1.7891 1.6094v0.1777l1.7812 1.6016v0.1797l1.7734 1.5957v0.1777l1.7637 1.586v0.1796l1.7578 1.5801v0.1758l1.748 1.5723v0.1777l1.7422 1.5664v0.1738l1.7324 1.5586v0.1739l1.7246 1.5507v0.1758l1.7168 1.543v0.1738l1.709 1.5371v0.1719l1.7012 1.5293v0.1719l1.6934 1.5234v0.1699l1.6856 1.5157v0.1699l1.6777 1.5078v0.168l1.6699 1.5019v0.168l1.6602 1.4922v0.1699l1.6543 1.4883v0.164l1.6445 1.4786v0.1679l1.6367 1.4727v0.164l1.6309 1.4668v0.1621l1.6211 1.4571v0.166l1.6133 1.4512v0.1621l1.6055 1.4433v0.1621l1.5976 1.4375v0.1602l1.5898 1.4297v0.1601l1.582 1.4219v0.1582l1.5742 1.416v0.1582l1.5644 1.4063v0.1601l1.5586 1.4024v0.1543l1.5488 1.3926v0.1582l1.543 1.3867v0.1543l1.5332 1.3789v0.1562l1.5254 1.3711v0.1543l1.5195 1.3672v0.1504l1.5098 1.3574v0.1524l1.502 1.3515v0.1504l1.4941 1.3438v0.1504l1.4844 1.334v0.1523l1.4785 1.3301v0.1484l1.4707 1.3223v0.1465l1.4629 1.3164v0.1465l1.4531 1.3066v0.1484l1.4453 1.2989v0.1464l1.4394 1.295v0.1445l1.4297 1.2852v0.1445l1.4218 1.2793v0.1426l1.4161 1.2734v0.1406l1.4062 1.2637v0.1426l1.3984 1.2578v0.1406l1.3907 1.25v0.1406l1.3808 1.2422v0.1406l1.375 1.2364v0.1386l1.3672 1.2286v0.1367l1.3574 1.2207v0.1387l1.3516 1.2148v0.1348l1.3418 1.207v0.1367l1.3359 1.2012v0.1328l1.3262 1.1934v0.1328l1.3184 1.1855v0.1348l1.3105 1.1777v0.1328l1.3028 1.1719v0.1309l1.2949 1.164v0.1309l1.2871 1.1582v0.1289l1.2793 1.1504v0.1269l1.2695 1.1426v0.1289l1.2637 1.1367v0.127l1.2558 1.1289v0.125l1.2461 1.1211v0.1269l1.2383 1.1133v0.125l1.2324 1.1075v0.123l1.2227 1.0996v0.125l1.2148 1.0918v0.1231l1.2071 1.0859v0.1211l1.1992 1.0781v0.1211l1.1914 1.0723v0.1191l1.1836 1.0645v0.1191l1.1758 1.0566v0.1172l1.166 1.0489v0.1191l1.1601 1.043v0.1172l1.1504 1.0351v0.1152l1.1446 1.0293v0.1153l1.1347 1.0195v0.1152l1.1289 1.0157v0.1113l1.1192 1.0059v0.1132l1.1113 1v0.1114l1.1035 0.9922v0.1132l1.0957 0.9844v0.1094l1.0879 0.9785v0.1094l1.0781 0.9687v0.1114l1.0723 0.9648v0.1074l1.0645 0.957v0.1055l1.0566 0.9492v0.1075l1.0469 0.9414v0.1054l1.039 0.9336v0.1074l1.0332 0.9297v0.1016l1.0235 0.9199v0.1035l1.0156 0.9141v0.1035l1.0078 0.9063v0.1015l1 0.8985v0.1015l0.9922 0.8926v0.1l0.9844 0.8848v0.098l0.9765 0.8789v0.098l0.9668 0.8691v0.1l0.961 0.8633v0.096l0.9511 0.8555v0.098l0.9454 0.8496v0.094l0.9355 0.8418v0.096l0.9297 0.836v0.092l0.9199 0.8281v0.092l0.9121 0.8203v0.092l0.9043 0.8125v0.092l0.8965 0.8066v0.09l0.8887 0.7988v0.09l0.8808 0.793v0.088l0.8711 0.7832v0.09l0.8653 0.7774v0.086l0.8554 0.7696v0.088l0.8496 0.7637v0.086l0.8399 0.7558v0.084l0.834 0.75v0.082l0.8242 0.7403v0.084l0.8164 0.7343v0.084l0.8086 0.7266v0.082l0.8008 0.7207v0.08l0.7929 0.7129v0.08l0.7852 0.705v0.08l0.7773 0.6992v0.076l0.7676 0.6895v0.08l0.7617 0.6856v0.076l0.7539 0.6778v0.074l0.7442 0.6699v0.076l0.7363 0.6621v0.074l0.7305 0.6563v0.072l0.7207 0.6485v0.072l0.7129 0.6407v0.074l0.7051 0.6348v0.07l0.6972 0.6269v0.07l0.6895 0.6192v0.068l0.6816 0.6133v0.068l0.6719 0.6035v0.07l0.666 0.5996v0.066l0.6582 0.5918v0.064l0.6484 0.5839v0.067l0.6426 0.5781v0.062l0.6328 0.5683v0.065l0.625 0.5625v0.064l0.6172 0.5547v0.062l0.6094 0.5489v0.061l0.6016 0.541v0.061l0.5937 0.5332v0.061l0.5859 0.5274v0.059l0.5782 0.5195v0.059l0.5703 0.5137v0.055l0.5605 0.5039v0.059l0.5547 0.4981v0.055l0.5449 0.4902v0.057l0.5391 0.4843v0.053l0.5293 0.4765v0.055l0.5215 0.4688v0.053l0.5137 0.4629v0.051l0.5058 0.455v0.051l0.4981 0.4473v0.051l0.4902 0.4414v0.049l0.4824 0.4336v0.049l0.4746 0.4278v0.045l0.4668 0.4199v0.047l0.4571 0.4101v0.049l0.4511 0.4062v0.043l0.4414 0.3965v0.047l0.4336 0.3907v0.043l0.4278 0.3848v0.041l0.4179 0.375v0.043l0.4102 0.3691v0.041l0.4023 0.3614v0.043l0.3946 0.3555v0.037l0.3867 0.3477v0.039l0.3789 0.3399v0.039l0.3691 0.3321v0.039l0.3633 0.3262v0.035l0.3535 0.3183v0.037l0.3477 0.3125v0.033l0.3379 0.3047v0.035l0.33 0.2969v0.033l0.3243 0.291v0.031l0.3144 0.2832v0.033l0.3067 0.2754v0.031l0.2988 0.2695v0.029l0.291 0.2617v0.027l0.2832 0.2539v0.029l0.2734 0.2461v0.029l0.2676 0.2402v0.027l0.2598 0.2344v0.023l0.25 0.2247v0.027l0.2441 0.2188v0.023l0.2344 0.2109v0.025l0.2266 0.2031v0.024l0.2207 0.1992v0.02l0.2109 0.1895v0.021l0.2031 0.1836v0.02l0.1953 0.1758v0.019l0.1856 0.166v0.021l0.1797 0.1621v0.018l0.1719 0.1543v0.018l0.164 0.1484v0.014l0.1543 0.1386v0.018l0.1484 0.1328v0.014l0.1387 0.125v0.016l0.1309 0.1172v0.014l0.125 0.1133v0.01l0.1152 0.1036v0.012l0.1074 0.096v0.012l0.1 0.09v0.01l0.092 0.082v0.01l0.084 0.076v0.01l0.074 0.066v0.01l0.068 0.061v0.01l0.061 0.055 0.051 0.045v0.01l0.045 0.041 0.035 0.031 0.027 0.025 0.019 0.018 0.012 0.01 614.39 552.49 0.012 0.012v-0.9239-0.9238-141.97h1.1836v1.5097h1.5019v1.502h1.4942v1.4941h1.4863v1.4863h1.4785v1.4766h1.4688v1.4707h1.4629v1.4629h1.455v1.4531h1.4454v1.4473h1.4394v1.4375h1.4297v1.4297h1.4219v1.4238h1.414v1.4141h1.4063v1.4062h1.3984v1.3985h1.3907v1.3906h1.3828v1.3828h1.375v1.373h1.3652v1.3672h1.3594v1.3594h1.3496v1.3496h1.3437v1.3438h1.334v1.3339h1.3262v1.3262h1.3203v1.3184h1.3105v1.3105h1.3028v1.3028h1.2949v1.2949h1.2871v1.2871h1.2774v1.2793h1.2714v1.2715h1.2637v1.2617h1.2539v1.2558h1.2481v1.2461h1.2382v1.2403h1.2305v1.2304h1.2246v1.2227h1.2149v1.2148h1.207v1.209h1.1992v1.1993h1.1914v1.1894h1.1817v1.1836h1.1757v1.1758h1.168v1.1679h1.1602v1.1583h1.1504v1.1523h1.1445v1.1426h1.1348v1.1367h1.1269v1.1269h1.1192v1.1192h1.1113v1.1113h1.1035v1.1035h1.0957v1.0957h1.0879v1.0879h1.0801v1.0801h1.0722v1.0723h1.0625v1.0625h1.0567v1.0566h1.0469v1.0469h1.041v1.041h1.0312v1.0312h1.0235v1.0235h1.0156v1.0156h1.0097v1.0078h1v1h0.9922v0.9922h0.9825v0.9844h0.9765v0.9765h0.9688v0.9688h0.9609v0.959h0.9512v0.9531h0.9433v0.9434h0.9375v0.9355h0.9278v0.9297h0.9199v0.9199h0.9121v0.9121h0.9043v0.9043h0.8965v0.8965h0.8887v0.8887h0.8808v0.8808h0.8731v0.8731h0.8632v0.8633h0.8575v0.8574h0.8476v0.8477h0.8418v0.8417h0.832v0.8321h0.8243v0.8242h0.8183v0.8164h0.8086v0.8086h0.8008v0.8008h0.793v0.7929h0.7851v0.7852h0.7754v0.7773h0.7695v0.7696h0.7618v0.7597h0.7519v0.7539h0.7442v0.7442h0.7382v0.7383h0.7286v0.7285h0.7207v0.7207h0.7148v0.7129h0.7051v0.7051h0.6953v0.6972h0.6894v0.6895h0.6817v0.6816h0.6738v0.6738h0.666v0.6641h0.6563v0.6582h0.6504v0.6485h0.6406v0.6425h0.6328v0.6328h0.627v0.625h0.6172v0.6192h0.6093v0.6094h0.6016v0.6015h0.5937v0.5938h0.586v0.584h0.5761v0.5781h0.5704v0.5703h0.5625v0.5625h0.5527v0.5527h0.5469v0.5469h0.5371v0.5371h0.5293v0.5293h0.5234v0.5215h0.5137v0.5156h0.5058v0.5059h0.4981v0.498h0.4902v0.4903h0.4824v0.4804h0.4727v0.4746h0.4668v0.4668h0.459v0.4571h0.4492v0.4511h0.4414v0.4414h0.4356v0.4356h0.4257v0.4258h0.418v0.4179h0.4102v0.4102h0.4023v0.4023h0.3945v0.3946h0.3868v0.3867h0.3789v0.3789h0.3711v0.3691h0.3613v0.3633h0.3555v0.3555h0.3457v0.3457h0.3398v0.3379h0.3301v0.332h0.3222v0.3223h0.3145v0.3144h0.3086v0.3067h0.2988v0.2988h0.291v0.291h0.2813v0.2832h0.2754v0.2754h0.2676v0.2656h0.2578v0.2598h0.2519v0.25h0.2422v0.2441h0.2344v0.2344h0.2285v0.2285h0.2187v0.2188h0.211v0.2109h0.2031v0.2031h0.1953v0.1954h0.1875v0.1875h0.1797v0.1777h0.1699v0.1719h0.1641v0.164h0.1562v0.1543h0.1465v0.1485h0.1407v0.1386h0.1308v0.1328h0.1231v0.1231h0.1152v0.1152h0.1074v0.1074h0.1v0.1h0.092v0.092h0.084v0.084h0.076v0.076h0.066v0.066h0.061v0.061h0.053v0.051h0.043v0.045h0.035v0.035h0.029v0.027h0.02v0.022h0.012v0.012h123.8v-373.05h1.0957v2.4336h2.4277v2.4277h2.418v2.418h2.4101v2.4101h2.4024v2.4024h2.3945v2.3945h2.3867v2.3867h2.377v2.377h2.3711v2.3711h2.3633v2.3633h2.3535v2.3535h2.3476v2.3476h2.3379v2.3379h2.332v2.3301h2.3223v2.3242h2.3145v2.3145h2.3066v2.3066h2.2988v2.2988h2.2911v2.2911h2.2832v2.2832h2.2734v2.2734h2.2676v2.2676h2.2597v2.2597h2.25v2.25h2.2442v2.2442h2.2344v2.2344h2.2265v2.2265h2.2207v2.2188h2.209v2.2109h2.2051v2.2031h2.1953v2.1954h2.1855v2.1875h2.1797v2.1796h2.1719v2.1719h2.1621v2.1621h2.1563v2.1563h2.1464v2.1465h2.1407v2.1406h2.1308v2.1308h2.1231v2.1231h2.1172v2.1152h2.1074v2.1094h2.0996v2.0996h2.0898v2.0899h2.084v2.0839h2.0762v2.0762h2.0684v2.0684h2.0585v2.0586h2.0528v2.0527h2.043v2.043h2.0371v2.0371h2.0273v2.0273h2.0195v2.0196h2.0118v2.0117h2.0039v2.0039h1.9961v1.9961h1.9882v1.9883h1.9805v1.9804h1.9727v1.9727h1.9629v1.9629h1.957v1.957h1.9472v1.9473h1.9415v1.9414h1.9316v1.9316h1.9238v1.9238h1.918v1.9161h1.9082v1.9082h1.9004v1.9003h1.8906v1.8926h1.8848v1.8848h1.8769v1.8769h1.8692v1.8692h1.8593v1.8594h1.8536v1.8535h1.8437v1.8437h1.8379v1.8379h1.8281v1.8281h1.8203v1.8204h1.8125v1.8125h1.8047v1.8046h1.7969v1.7969h1.7891v1.7891h1.7812v1.7812h1.7735v1.7735h1.7636v1.7636h1.7578v1.7578h1.7481v1.7481h1.7422v1.7422h1.7324v1.7324h1.7246v1.7246h1.7168v1.7168h1.7109v1.7109h1.7012v1.7012h1.6914v1.6934h1.6875v1.6836h1.6758v1.6777h1.6699v1.6699h1.6602v1.6602h1.6543v1.6543h1.6445v1.6445h1.6387v1.6387h1.6289v1.6289h1.6211v1.6211h1.6152v1.6133h1.6055v1.6054h1.5957v1.5977h1.5898v1.5898h1.5821v1.5821h1.5742v1.5742h1.5664v1.5664h1.5566v1.5566h1.5508v1.5508h1.541v1.541h1.5332v1.5332h1.5274v1.5274h1.5175v1.5176h1.5098v1.5097h1.502v1.502h1.4941v1.4941h1.4863v1.4863h1.4785v1.4766h1.4688v1.4707h1.4629v1.4629h1.4531v1.4531h1.4473v1.4473h1.4375v1.4375h1.4316v1.4297h1.4219v1.4238h1.4141v1.4141h1.4062v1.4062h1.3984v1.3985h1.3907v1.3906h1.3828v1.3828h1.373v1.373h1.3672v1.3672h1.3594v1.3594h1.3496v1.3496h1.3418v1.3438h1.3359v1.3339h1.3262v1.3262h1.3184v1.3184h1.3105v1.3105h1.3027v1.3028h1.295v1.2949h1.2871v1.2871h1.2793v1.2793h1.2715v1.2715h1.2617v1.2617h1.2558v1.2558h1.2461v1.2461h1.2403v1.2403h1.2304v1.2304h1.2227v1.2227h1.2148v1.2148h1.209v1.209h1.1973v1.1993h1.1914v1.1894h1.1836v1.1836h1.1758v1.1758h1.1679v1.1679h1.1582v1.1583h1.1524v1.1523h1.1426v1.1426h1.1367v1.1367h1.1269v1.1269h1.1192v1.1192h1.1113v1.1113h1.1035v1.1035h1.0957v1.0957h1.0879v1.0879h1.0801v1.0801h1.0703v1.0723h1.0645v1.0625h1.0566v1.0566h1.0469v1.0469h1.041v1.041h1.0312v1.0312h1.0235v1.0235h1.0156v1.0156h1.0078v1.0078h1v1h0.9922v0.9922h0.9844v0.9844h0.9765v0.9765h0.9688v0.9688h0.959v0.959h0.9531v0.9531h0.9434v0.9434h0.9355v0.9355h0.9297v0.9297h0.9199v0.9199h0.9121v0.9121h0.9043v0.9043h0.8965v0.8965h0.8887v0.8887h0.8808v0.8808h0.8731v0.8731h0.8633v0.8633h0.8574v0.8574h0.8476v0.8477h0.8418v0.8417h0.8321v0.8321h0.8242v0.8242h0.8164v0.8164h0.8086v0.8086h0.8008v0.8008h0.7929v0.7929h0.7852v0.7852h0.7773v0.7773h0.7696v0.7696h0.7597v0.7597h0.7539v0.7539h0.7442v0.7442h0.7383v0.7383h0.7285v0.7285h0.7207v0.7207h0.7129v0.7129h0.705v0.7051h0.6973v0.6972h0.6895v0.6895h0.6816v0.6816h0.6738v0.6738h0.6641v0.6641h0.6582v0.6582h0.6484v0.6485h0.6426v0.6425h0.6328v0.6328h0.627v0.625h0.6172v0.6192h0.6093v0.6094h0.6016v0.6015h0.5938v0.5938h0.5859v0.584h0.5762v0.5781h0.5703v0.5703h0.5625v0.5625h0.5527v0.5527h0.5469v0.5469h0.5371v0.5371h0.5293v0.5293h0.5215v0.5215h0.5156v0.5156h0.5059v0.5059h0.498v0.498h0.4902v0.4903h0.4805v0.4804h0.4746v0.4746h0.4668v0.4668h0.457v0.4571h0.4512v0.4511h0.4414v0.4414h0.4356v0.4356h0.4258v0.4258h0.4179v0.4179h0.4102v0.4102h0.4023v0.4023h0.3946v0.3946h0.3867v0.3867h0.3789v0.3789h0.3711v0.3691h0.3613v0.3633h0.3555v0.3555h0.3457v0.3457h0.3398v0.3379h0.3301v0.332h0.3223v0.3223h0.3144v0.3144h0.3067v0.3067h0.2988v0.2988h0.291v0.291h0.2832v0.2832h0.2754v0.2754h0.2656v0.2656h0.2598v0.2598h0.2519v0.25h0.2422v0.2441h0.2344v0.2344h0.2285v0.2285h0.2188v0.2188h0.2109v0.2109h0.2031v0.2031h0.1953v0.1954h0.1875v0.1875h0.1778v0.1777h0.1719v0.1719h0.164v0.164h0.1543v0.1543h0.1484v0.1485h0.1387v0.1386h0.1328v0.1328h0.1231v0.1231h0.1152v0.1152h0.1074v0.1074h0.1v0.1h0.092v0.092h0.084v0.084h0.074v0.076h0.068v0.066h0.061v0.061h0.051v0.051h0.045v0.045h0.035v0.035h0.027v0.027h0.021v0.022h0.012v0.012h277.17c29.565 0 57.283-5.544 83.152-16.631 26.793-12.011 49.891-26.793 69.293-47.119 19.402-19.402 35.108-41.576 46.195-68.369 11.087-25.869 16.631-53.587 16.631-83.152 0-53.362-16.274-99.646-49.439-138.24-1.1808-1.374-2.3819-2.7393-3.6055-4.0937l-0.012-0.012c-2.4512-2.7129-4.9879-5.3874-7.6114-8.0214l-0.012-0.012c-0.01-0.01-0.013-0.013-0.019-0.02l-0.029-0.029c-0.01-0.01-0.019-0.017-0.027-0.025 0 0 0-0.01-0.01-0.01l-0.043-0.043c-0.017-0.018-0.035-0.035-0.053-0.053-0.02-0.02-0.041-0.039-0.061-0.058-0.048-0.048-0.095-0.097-0.1426-0.1446l-0.084-0.084-0.092-0.092c-0.019-0.019-0.04-0.037-0.059-0.057-0.035-0.035-0.07-0.07-0.1054-0.1055-0.037-0.037-0.074-0.074-0.1114-0.1113l-0.1211-0.1211-0.1269-0.1269-0.1348-0.1348-0.1465-0.1465c-0.05-0.05-0.1003-0.1002-0.1503-0.1504-0.076-0.076-0.1526-0.1524-0.2286-0.2285-0.02-0.02-0.041-0.039-0.061-0.059-0.072-0.072-0.1431-0.1447-0.2148-0.2168-0.062-0.062-0.1239-0.1236-0.1856-0.1855-0.064-0.064-0.1277-0.1276-0.1914-0.1914-0.066-0.067-0.1329-0.1328-0.1992-0.1993-0.069-0.07-0.1395-0.1392-0.209-0.209-0.072-0.072-0.145-0.1428-0.2168-0.2148-0.088-0.088-0.1759-0.1758-0.2637-0.2637-0.051-0.051-0.1017-0.1015-0.1523-0.1523-0.093-0.093-0.1863-0.1861-0.2793-0.2793-0.081-0.081-0.1616-0.1614-0.2422-0.2422 43.398-42.493 64.637-94.219 64.637-154.26 0-29.565-5.5439-57.281-16.631-83.15-8.3175-20.1-19.236-37.6-32.363-53.281-1.0901-1.3022-2.1941-2.5936-3.3145-3.8711l-0.012-0.012c-1.1203-1.2775-2.2561-2.5431-3.4062-3.7969l-0.012-0.012c-1.1005-1.1993-2.2163-2.3861-3.3437-3.5645-0.051-0.053-0.099-0.1088-0.1504-0.1621l-0.012-0.012-0.02-0.02c-0.0009-0.001-0.0009 0 0 0l-0.01-0.01c-0.01-0.01-0.013-0.013-0.019-0.02-0.2774-0.2894-0.5646-0.5712-0.8438-0.8594-0.4263-0.4402-0.857-0.8771-1.2871-1.3144-0.4696-0.4775-0.9302-0.9615-1.4043-1.4356 0 0-0.01-0.01-0.012-0.014-1.2088-1.2663-2.4324-2.5103-3.6699-3.7343l-0.012-0.012c-0.01-0.01-0.013-0.013-0.019-0.02l-0.01-0.01-0.019-0.019-0.037-0.037c-0.014-0.014-0.028-0.029-0.043-0.043-0.01-0.01-0.012-0.01-0.017-0.016-0.012-0.012-0.023-0.025-0.035-0.037l-0.018-0.018c-0.014-0.014-0.027-0.028-0.041-0.041-0.01-0.01-0.015-0.013-0.021-0.02l-0.072-0.072-0.078-0.078c-0.029-0.029-0.057-0.059-0.086-0.088-0.031-0.031-0.062-0.063-0.094-0.094-0.023-0.023-0.045-0.046-0.068-0.068l-0.033-0.033c-0.037-0.036-0.075-0.073-0.1113-0.1093l-0.1172-0.1172c-0.042-0.041-0.083-0.084-0.125-0.125l-0.1348-0.1348c-0.047-0.047-0.093-0.094-0.1406-0.1406-0.05-0.05-0.1-0.1006-0.1504-0.1504-0.054-0.053-0.1065-0.1072-0.1602-0.1602-0.054-0.054-0.1078-0.1084-0.1621-0.1621-0.059-0.058-0.1169-0.1176-0.1758-0.1757-0.061-0.06-0.1208-0.1216-0.1816-0.1817-0.064-0.063-0.1276-0.1264-0.1914-0.1894-0.066-0.066-0.1309-0.1337-0.1973-0.1993-0.069-0.068-0.1364-0.1372-0.2051-0.205-0.071-0.07-0.1419-0.1409-0.2128-0.211-0.075-0.074-0.1481-0.1489-0.2227-0.2226-0.077-0.076-0.1516-0.1546-0.2285-0.2305-0.079-0.078-0.1572-0.1581-0.2363-0.2363-0.083-0.082-0.1653-0.1644-0.2481-0.2461-0.085-0.084-0.1688-0.1699-0.2539-0.2539-0.087-0.086-0.1724-0.1755-0.2598-0.2617-0.09-0.09-0.1809-0.1801-0.2714-0.2696-0.093-0.092-0.1845-0.1856-0.2774-0.2773-0.095-0.094-0.1883-0.1895-0.2832-0.2832-0.099-0.098-0.1961-0.1974-0.2949-0.2949-0.1006-0.1-0.2-0.2013-0.3008-0.3008-0.1032-0.1024-0.2052-0.2065-0.3086-0.3086-0.1064-0.1056-0.2117-0.2131-0.3184-0.3184-0.1077-0.1069-0.2143-0.2157-0.3222-0.3222-0.1232-0.1223-0.2457-0.2454-0.3692-0.3672-0.091-0.09-0.1802-0.1833-0.2714-0.2735-0.1394-0.1384-0.2782-0.2781-0.418-0.416-0.097-0.096-0.1923-0.1935-0.2891-0.289-0.1341-0.1334-0.2659-0.2696-0.4004-0.4024-0.1142-0.1134-0.2273-0.2288-0.3418-0.3418-0.1488-0.1479-0.296-0.298-0.4453-0.4453-0.1189-0.118-0.2363-0.2379-0.3554-0.3555-0.1427-0.1417-0.2847-0.2846-0.4278-0.4258-0.1037-0.103-0.2066-0.2078-0.3105-0.3105-0.17-0.169-0.3373-0.3415-0.5078-0.5098-0.1296-0.1286-0.2588-0.2585-0.3887-0.3867-0.1439-0.143-0.2854-0.2892-0.4297-0.4316-0.1456-0.1447-0.2896-0.2915-0.4355-0.4356-0.1482-0.1472-0.2949-0.2967-0.4434-0.4433-0.1521-0.1511-0.3026-0.3046-0.4551-0.4551-0.154-0.153-0.3065-0.3086-0.4609-0.4609-0.155-0.1541-0.3094-0.3095-0.4649-0.4629-0.1599-0.159-0.3181-0.3203-0.4785-0.4786-0.1618-0.1608-0.322-0.3242-0.4844-0.4843-0.1644-0.1635-0.3272-0.3295-0.4921-0.4922-0.1671-0.1661-0.3325-0.3347-0.5-0.5-0.17-0.169-0.3393-0.3396-0.5098-0.5078-0.1736-0.1726-0.3454-0.3478-0.5195-0.5196-0.1753-0.1742-0.3477-0.352-0.5235-0.5253-0.1768-0.176-0.3519-0.3544-0.5293-0.5293-0.1813-0.1805-0.3609-0.3635-0.5429-0.543-0.1821-0.1811-0.3623-0.3648-0.545-0.5449-0.1872-0.1863-0.3726-0.3753-0.5605-0.5606-0.1885-0.1875-0.3753-0.3779-0.5645-0.5644-0.1892-0.1883-0.3765-0.3792-0.5664-0.5664-0.1944-0.1935-0.3869-0.3897-0.582-0.5821-0.1976-0.1967-0.3934-0.3962-0.5918-0.5918-0.1992-0.1983-0.3977-0.3985-0.5977-0.5957-0.2002-0.1992-0.3986-0.4014-0.5996-0.5996-0.2041-0.2032-0.4064-0.4092-0.6113-0.6113-0.2084-0.2075-0.4138-0.4188-0.623-0.625-0.2091-0.2081-0.4171-0.4181-0.627-0.625-0.2119-0.211-0.422-0.425-0.6348-0.6348-0.2162-0.2153-0.4313-0.4325-0.6484-0.6465-0.2178-0.2168-0.4337-0.4367-0.6523-0.6523-0.2202-0.2192-0.4372-0.4423-0.6582-0.6602-0.223-0.222-0.4441-0.4472-0.668-0.6679-0.2256-0.2247-0.4493-0.4525-0.6758-0.6758-0.2276-0.2267-0.4531-0.4564-0.6816-0.6817-0.2302-0.2293-0.4583-0.4615-0.6895-0.6894-0.2347-0.2339-0.4674-0.4708-0.7031-0.7031-0.2364-0.2356-0.4715-0.4731-0.709-0.7071-0.239-0.2381-0.4748-0.4802-0.7148-0.7168-0.2402-0.2393-0.4795-0.4809-0.7207-0.7187-0.2458-0.245-0.4895-0.493-0.7364-0.7363-0.2458-0.245-0.4894-0.493-0.7363-0.7364-0.249-0.2481-0.496-0.4996-0.7461-0.7461-0.2516-0.2508-0.5011-0.5048-0.7539-0.7539-0.2568-0.256-0.5115-0.5152-0.7695-0.7695-0.2574-0.2567-0.5128-0.5166-0.7715-0.7715-0.2582-0.2574-0.5139-0.5178-0.7735-0.7734-0.2626-0.262-0.5231-0.5271-0.7871-0.7871-0.2652-0.2646-0.5283-0.5322-0.7949-0.795-0.2698-0.269-0.5374-0.5414-0.8086-0.8085-0.2708-0.2702-0.5403-0.5424-0.8125-0.8106-0.2727-0.2721-0.5422-0.5483-0.8164-0.8183-0.2749-0.2745-0.5478-0.552-0.8242-0.8243-0.2802-0.2795-0.5582-0.5624-0.8398-0.8398-0.2806-0.2799-0.5598-0.5621-0.8418-0.8399-0.2847-0.2841-0.5673-0.5716-0.8536-0.8535-0.2837-0.2832-0.5643-0.5705-0.8496-0.8515-0.2922-0.2917-0.5831-0.5857-0.8769-0.875-0.2919-0.2913-0.5816-0.5861-0.875-0.875-0.2944-0.2939-0.5868-0.5913-0.8828-0.8828-0.3056-0.3051-0.6087-0.6135-0.916-0.9161-0.2897-0.289-0.578-0.5805-0.8692-0.8671-0.2928-0.2925-0.5826-0.589-0.8769-0.879-0.3165-0.3161-0.6309-0.6358-0.9493-0.9492-0.3057-0.3053-0.6085-0.6152-0.916-0.9179-0.3218-0.3215-0.643-0.6444-0.9668-0.9629-0.2921-0.2917-0.5812-0.5876-0.875-0.877-0.3268-0.3266-0.6516-0.6568-0.9804-0.9805-0.3166-0.3162-0.6308-0.6357-0.9493-0.9492-0.323-0.3227-0.6437-0.6488-0.9687-0.9687-0.3331-0.3328-0.6648-0.6683-1-0.9981-0.3055-0.3051-0.6088-0.6135-0.916-0.916-0.3403-0.3402-0.6771-0.6845-1.0196-1.0215-0.3295-0.3293-0.6566-0.6619-0.9882-0.9883-0.3364-0.3361-0.6714-0.6747-1.0098-1.0078-0.3367-0.3365-0.6709-0.6763-1.0098-1.0097-0.3386-0.3385-0.6748-0.6803-1.0156-1.0157-0.3414-0.3413-0.6798-0.6872-1.0234-1.0253-0.3467-0.3467-0.6921-0.6958-1.041-1.0391-0.3464-0.3464-0.6904-0.696-1.0391-1.0391-0.3512-0.3512-0.6993-0.7069-1.0527-1.0547-0.3503-0.3503-0.6982-0.7038-1.0508-1.0507-0.3577-0.3578-0.7141-0.718-1.0742-1.0723-0.358-0.3581-0.7139-0.7197-1.0743-1.0742-0.3599-0.3601-0.7177-0.7236-1.08-1.0801-0.3626-0.3628-0.7229-0.7288-1.0879-1.0879-0.3753-0.3755-0.749-0.7534-1.127-1.125-0.3407-0.3408-0.6786-0.6858-1.0215-1.0234-0.4001-0.4008-0.798-0.8048-1.2011-1.2012-0.3626-0.3627-0.7229-0.7289-1.0879-1.0879-0.3788-0.3791-0.7554-0.7615-1.1367-1.1367-0.3793-0.3795-0.7568-0.7612-1.1387-1.1367-0.382-0.3824-0.7618-0.7682-1.1465-1.1465-0.3843-0.3848-0.7651-0.7736-1.1524-1.1543-0.3874-0.3879-0.7737-0.7783-1.164-1.1621-0.3884-0.389-0.7747-0.7813-1.166-1.166-0.3895-0.39-0.7757-0.7841-1.168-1.17-0.3962-0.3968-0.7903-0.7969-1.1894-1.1894-0.3979-0.3985-0.7945-0.7992-1.1954-1.1934-0.4001-0.4008-0.798-0.8048-1.2011-1.2011-0.403-0.4038-0.8029-0.8117-1.209-1.211-0.4079-0.4086-0.8136-0.8205-1.2246-1.2246-0.407-0.4077-0.8126-0.8175-1.2227-1.2207-0.4123-0.4132-0.8227-0.8298-1.2383-1.2383-0.4134-0.4143-0.8235-0.8326-1.2402-1.2422-0.4136-0.4145-0.8253-0.8323-1.2422-1.2422-0.4211-0.4221-0.8411-0.8464-1.2656-1.2636-0.4302-0.4312-0.8593-0.8649-1.293-1.291-0.401-0.4018-0.7991-0.8077-1.2031-1.2051-0.4382-0.4396-0.8746-0.8821-1.3164-1.3164-0.4292-0.4304-0.8564-0.8638-1.2891-1.2891-0.4318-0.433-0.8614-0.869-1.2969-1.2969-0.4373-0.4385-0.8735-0.8792-1.3144-1.3125-0.4374-0.4386-0.8715-0.8811-1.3125-1.3144-0.4386-0.4399-0.8761-0.8818-1.3184-1.3164-0.441-0.4425-0.8794-0.8891-1.3242-1.3262-0.4561-0.4576-0.911-0.9173-1.3711-1.3691-0.4252-0.4265-0.8486-0.8559-1.2773-1.2774-0.4647-0.4665-0.9277-0.9359-1.3965-1.3965-0.4489-0.4503-0.895-0.9048-1.3477-1.3496-0.4566-0.4583-0.9124-0.9185-1.373-1.3711-0.4612-0.4629-0.9195-0.9297-1.3848-1.3867-0.4611-0.4628-0.9215-0.9278-1.3867-1.3847-0.4634-0.4652-0.9251-0.9334-1.3926-1.3926-0.466-0.4678-0.9302-0.9387-1.4004-1.4004-0.4689-0.4707-0.9351-0.9455-1.4082-1.4102-0.4682-0.47-0.9358-0.9422-1.4082-1.4062-0.4738-0.4758-0.9458-0.9542-1.4238-1.4239-0.48-0.4819-0.959-0.9657-1.4434-1.4414-0.4766-0.4786-0.9507-0.9612-1.4316-1.4336-0.4848-0.4868-0.9678-0.9765-1.457-1.457-0.4847-0.4868-0.9679-0.9767-1.4571-1.457-0.4828-0.485-0.9638-0.9726-1.4511-1.4512-0.4945-0.4968-0.9872-0.9962-1.4864-1.4863-0.4924-0.4948-0.9834-0.9924-1.4804-1.4805-0.4951-0.4974-0.9886-0.9977-1.4883-1.4883-0.498-0.5003-0.9954-1.0026-1.4981-1.4961-0.5002-0.5026-0.9989-1.0081-1.5039-1.5039-0.4998-0.5023-0.9973-1.0084-1.5019-1.5039-0.509-0.5116-1.0173-1.0248-1.5313-1.5293-0.5081-0.5107-1.0143-1.0237-1.5273-1.5273-0.5067-0.5093-1.0119-1.0212-1.5234-1.5234-0.5181-0.5209-1.0336-1.0452-1.5567-1.5586-0.5116-0.5144-1.0225-1.03-1.539-1.5372-0.5236-0.5264-1.0455-1.0552-1.5743-1.5742-0.5215-0.5244-1.0417-1.0514-1.5683-1.5683-0.5207-0.5237-1.0386-1.0503-1.5645-1.5664-0.527-0.5302-1.0536-1.0616-1.5859-1.584-0.5293-0.5325-1.0572-1.0671-1.5918-1.5918-0.5319-0.5351-1.0624-1.0724-1.5996-1.5996-0.5345-0.5378-1.0676-1.0776-1.6074-1.6074-0.541-0.5444-1.0805-1.0908-1.627-1.627-0.5384-0.5417-1.0752-1.0854-1.6191-1.6191-0.5408-0.5443-1.0806-1.0909-1.627-1.627-0.5487-0.5522-1.096-1.1065-1.6504-1.6504-0.5443-0.5479-1.0887-1.097-1.6387-1.6367-0.5538-0.5575-1.1063-1.117-1.666-1.666-0.5531-0.5568-1.1051-1.1158-1.664-1.6641-0.5503-0.554-1.0983-1.1106-1.6543-1.6562-0.5602-0.5642-1.1194-1.1301-1.6856-1.6856-0.5608-0.5648-1.1206-1.1314-1.6875-1.6875-0.5634-0.5674-1.1258-1.1366-1.6953-1.6953-0.5663-0.5704-1.1326-1.1416-1.7051-1.7031-0.5686-0.5728-1.1361-1.1472-1.7109-1.711-0.5751-0.5793-1.1491-1.1603-1.7305-1.7304-0.5725-0.5768-1.1438-1.155-1.7226-1.7227-0.575-0.5792-1.1493-1.1604-1.7305-1.7304-0.5828-0.5873-1.1646-1.1761-1.7539-1.754-0.5821-0.5864-1.1634-1.1748-1.752-1.7519-0.5809-0.5854-1.1606-1.172-1.748-1.7481-0.5912-0.5958-1.1815-1.1931-1.7793-1.7792-0.5898-0.5946-1.179-1.1907-1.7754-1.7754-0.5906-0.5953-1.1801-1.1918-1.7773-1.7774-0.5968-0.6016-1.1933-1.2032-1.7969-1.7949-0.5981-0.6029-1.194-1.2078-1.7988-1.8008-0.6004-0.6052-1.1995-1.2114-1.8067-1.8066-0.6032-0.6082-1.2062-1.2164-1.8164-1.8145-0.602-0.607-1.2036-1.2155-1.8125-1.8125-0.6118-0.617-1.2229-1.2351-1.8418-1.8418-0.6093-0.6144-1.2176-1.2298-1.834-1.834-0.6155-0.6209-1.2307-1.2431-1.8535-1.8535-0.6158-0.6211-1.2305-1.2429-1.8535-1.8535-0.6188-0.6242-1.2372-1.2497-1.8633-1.8633-0.6201-0.6256-1.2397-1.2522-1.8672-1.8672-0.6195-0.6251-1.2384-1.2508-1.8652-1.8652-0.6285-0.6343-1.2566-1.2692-1.8926-1.8926-0.6291-0.6349-1.2579-1.2705-1.8945-1.8945-0.632-0.6379-1.2627-1.2775-1.9024-1.9043-0.6384-0.6445-1.2775-1.2887-1.9238-1.9219-0.637-0.6429-1.2731-1.2862-1.918-1.9179-0.6383-0.6445-1.2776-1.2888-1.9238-1.9219-0.6396-0.6458-1.2783-1.2934-1.9258-1.9278-0.6491-0.6554-1.2979-1.3113-1.955-1.955-0.6477-0.654-1.2955-1.3089-1.9512-1.9512-0.646-0.6523-1.2914-1.3046-1.9453-1.9453-0.6575-0.6641-1.3148-1.3284-1.9805-1.9805-0.6554-0.6619-1.311-1.3246-1.9746-1.9746-0.6579-0.6645-1.3163-1.328-1.9824-1.9805-0.6549-0.6615-1.3096-1.323-1.9727-1.9726-0.6693-0.6764-1.3377-1.3537-2.0156-2.0176-0.6643-0.6711-1.3293-1.3412-2.002-2-0.6704-0.6775-1.3405-1.3546-2.0195-2.0195-0.6672-0.6743-1.334-1.35-2.0098-2.0117-0.6776-0.6851-1.3565-1.3689-2.0429-2.0411-0.6769-0.6841-1.3535-1.3677-2.0391-2.039-0.6746-0.6819-1.3499-1.364-2.0332-2.0332-0.6857-0.6933-1.3717-1.3862-2.0664-2.0664-0.6843-0.6918-1.3692-1.3838-2.0625-2.0625-0.6806-0.6881-1.3613-1.3756-2.0508-2.0508-0.6914-0.6993-1.3834-1.398-2.084-2.084-0.6927-0.7006-1.3859-1.4006-2.0879-2.0879-0.6945-0.7026-1.3898-1.4046-2.0937-2.0937-0.6972-0.7053-1.3951-1.4099-2.1016-2.1016-0.6998-0.7079-1.4002-1.4151-2.1093-2.1094-0.7073-0.7155-1.4162-1.4292-2.1328-2.1308-0.7036-0.7116-1.4063-1.4233-2.1192-2.1211-0.7054-0.7138-1.412-1.4271-2.1269-2.127-0.7082-0.7166-1.4171-1.4321-2.1348-2.1348-0.7242-0.733-1.4494-1.4651-2.1836-2.1835-0.7111-0.7195-1.4237-1.4372-2.1445-2.1426-0.7187-0.7274-1.4376-1.455-2.166-2.168-0.716-0.7246-1.4325-1.4478-2.1583-2.1582-0.7238-0.7329-1.4497-1.4634-2.1835-2.1816-0.7262-0.7352-1.4533-1.469-2.1895-2.1895-0.729-0.7382-1.4581-1.4758-2.1973-2.1992-0.7312-0.7405-1.4636-1.4795-2.205-2.2051-0.7387-0.7481-1.4795-1.4935-2.2286-2.2266-0.7345-0.7437-1.4699-1.486-2.2148-2.2148-0.7369-0.7463-1.4754-1.4914-2.2227-2.2226-0.7467-0.7566-1.4946-1.5111-2.2519-2.252-0.7377-0.7472-1.4765-1.4925-2.2246-2.2246-0.7541-0.7641-1.5105-1.5253-2.2754-2.2734-0.743-0.7529-1.4867-1.5049-2.2402-2.2422-0.7544-0.7645-1.5103-1.5268-2.2754-2.2754-0.7595-0.7698-1.5205-1.5374-2.2911-2.291-0.7578-0.7679-1.5183-1.5333-2.2871-2.2852-0.76-0.7702-1.5218-1.5388-2.2929-2.293-0.763-0.7732-1.5268-1.5457-2.3008-2.3027-0.7655-0.7759-1.5339-1.549-2.3106-2.3086-0.7628-0.7733-1.5268-1.5457-2.3007-2.3027-0.7753-0.7861-1.5532-1.5686-2.3399-2.3379-0.7738-0.7845-1.5487-1.5662-2.334-2.334-0.7708-0.7816-1.5439-1.5611-2.3261-2.3262-0.7833-0.7944-1.5684-1.586-2.3633-2.3633-0.7812-0.7922-1.5646-1.5822-2.3574-2.3574-0.7789-0.7899-1.5592-1.5766-2.3497-2.3496-0.7915-0.803-1.5851-1.6031-2.3886-2.3887-0.7889-0.8002-1.5801-1.598-2.3809-2.3808-0.7918-0.8032-1.5869-1.603-2.3906-2.3887-0.7943-0.8059-1.5901-1.6102-2.3965-2.3984-0.7966-0.8082-1.5956-1.6138-2.4043-2.4043-0.7939-0.8056-1.5905-1.6085-2.3965-2.3965-0.8072-0.8194-1.6178-1.6344-2.4375-2.4356-0.8048-0.8168-1.6105-1.6309-2.4277-2.4296-0.8001-0.8121-1.6037-1.62-2.416-2.4141-0.8233-0.836-1.6481-1.6693-2.4844-2.4863-0.7898-0.8015-1.583-1.5989-2.3848-2.3828-0.8314-0.8449-1.665-1.6863-2.5097-2.5118-0.8177-0.8302-1.6383-1.6572-2.4688-2.4687-0.815-0.8276-1.6332-1.65-2.4609-2.459-0.8229-0.8358-1.6486-1.6675-2.4844-2.4844-0.8257-0.8388-1.6534-1.6744-2.4922-2.4941-0.8279-0.8411-1.6589-1.6781-2.5-2.5-0.836-0.8494-1.676-1.6936-2.5254-2.5235-0.8275-0.8406-1.6574-1.6765-2.498-2.498-0.8486-0.8624-1.7001-1.7203-2.5625-2.5625-0.8269-0.8399-1.6561-1.6773-2.4961-2.498-0.8463-0.8602-1.6967-1.7147-2.5567-2.5547-0.8387-0.8523-1.681-1.7006-2.5332-2.5332-0.8517-0.8658-1.7066-1.7268-2.5722-2.5723-0.8491-0.8629-1.7016-1.7217-2.5645-2.5645-0.8434-0.8572-1.6899-1.7095-2.5468-2.5468-0.8569-0.8712-1.7172-1.7373-2.5879-2.5879-0.8568-0.8712-1.7171-1.7373-2.5879-2.5879-0.8597-0.8742-1.7239-1.7422-2.5977-2.5957-0.8622-0.8769-1.7271-1.7494-2.6035-2.6055-0.8699-0.8848-1.7445-1.7633-2.6289-2.6269-0.8652-0.8799-1.7337-1.7544-2.6133-2.6133-0.8643-0.8792-1.7327-1.7532-2.6113-2.6113-0.8746-0.8901-1.7533-1.7741-2.6426-2.6426-0.8805-0.8959-1.7648-1.786-2.6602-2.6602-0.8722-0.8874-1.7479-1.7706-2.6347-2.6367-0.8801-0.8956-1.7653-1.7843-2.6602-2.6582-0.8888-0.9046-1.7816-1.8031-2.6855-2.6856-0.8855-0.901-1.7753-1.7967-2.6758-2.6757-0.8855-0.9011-1.7753-1.7966-2.6758-2.6758-0.8934-0.9094-1.7905-1.8122-2.6992-2.6992-0.8934-0.9094-1.7905-1.8122-2.6992-2.6993-0.8908-0.9067-1.7854-1.8068-2.6914-2.6914-0.91-0.9265-1.8242-1.8466-2.75-2.75-0.8899-0.9057-1.7844-1.8059-2.6895-2.6894-0.9092-0.926-1.823-1.8452-2.748-2.7481-0.9039-0.9203-1.813-1.8329-2.7324-2.7304-0.9056-0.9222-1.8152-1.8391-2.7364-2.7383-0.9116-0.9287-1.8282-1.8504-2.7558-2.7559-0.9201-0.9373-1.845-1.8676-2.7813-2.7812-0.9167-0.9338-1.8386-1.8613-2.7715-2.7715-0.9111-0.9281-1.8268-1.849-2.7539-2.7539-0.9302-0.9481-1.8656-1.8887-2.8125-2.8125-0.9189-0.9362-1.8422-1.8648-2.7773-2.7774-0.927-0.9448-1.8593-1.882-2.8028-2.8027-0.9356-0.9538-1.8775-1.8989-2.83-2.8281-0.9304-0.9482-1.8656-1.8886-2.8125-2.8125-0.9317-0.9496-1.8682-1.8931-2.8164-2.8184-0.9434-0.9618-1.8931-1.9147-2.8536-2.8515-0.9342-0.9524-1.8732-1.8964-2.8242-2.8243-0.9487-0.9675-1.9031-1.9268-2.8691-2.8691-0.937-0.9553-1.8782-1.9033-2.832-2.834-0.9568-0.9759-1.9203-1.9423-2.8946-2.8926-0.9505-0.9693-1.9071-1.931-2.875-2.875-0.9534-0.9723-1.9139-1.9359-2.8847-2.8828-0.9557-0.9747-1.9155-1.9415-2.8887-2.8906-0.9641-0.9833-1.9341-1.9568-2.916-2.9141-0.9449-0.9635-1.8955-1.9188-2.8575-2.8574-0.9746-0.9949-1.9562-1.981-2.9492-2.9492-0.9597-0.9791-1.9249-1.951-2.9023-2.9043-0.9749-0.995-1.9561-1.9809-2.9492-2.9492-0.969-0.9888-1.9447-1.9673-2.9317-2.9297-0.9705-0.9905-1.9469-1.9734-2.9355-2.9375-0.9764-0.9968-1.9604-1.9831-2.9551-2.9531-0.9857-1.0065-1.978-2.0033-2.9824-2.9824-0.9818-1.0022-1.9704-1.9956-2.9707-2.9708-0.9779-0.9981-1.9608-1.9875-2.9571-2.9589-0.9872-1.0082-1.9823-2.0055-2.9882-2.9864-0.9895-1.0105-1.9859-2.011-2.9942-2.9941-0.9923-1.0136-1.9907-2.018-3.0019-3.0039-1.0007-1.0222-2.0094-2.0333-3.0293-3.0274-0.9951-1.0162-1.9976-2.0212-3.0117-3.0097-0.9967-1.0181-1.9999-2.0274-3.0157-3.0176-1.0022-1.024-2.0117-2.0374-3.0332-3.0332-1.0115-1.0337-2.0313-2.0556-3.0625-3.0605-1.0017-1.0235-2.0102-2.0379-3.0312-3.0333-1.0099-1.0319-2.0272-2.0532-3.0567-3.0566-1.0194-1.042-2.0464-2.0731-3.0859-3.0859-1.0207-1.0431-2.0491-2.0761-3.0898-3.0899-1.0022-1.024-2.0116-2.0374-3.0333-3.0332-1.0252-1.0484-2.058-2.0846-3.1035-3.1035-1.03-1.0531-2.0687-2.0939-3.1191-3.1172-1.0234-1.0462-2.0541-2.0809-3.0977-3.0976-1.0284-1.0516-2.0644-2.0915-3.1132-3.1133-1.0279-1.051-2.0632-2.092-3.1114-3.1133-1.0333-1.057-2.0749-2.102-3.1289-3.1289-1.0427-1.0666-2.0945-2.1202-3.1582-3.1563-1.0326-1.056-2.0738-2.1008-3.1269-3.1269-1.0482-1.0723-2.1046-2.1324-3.1739-3.1738-1.0441-1.0681-2.0969-2.1248-3.1621-3.1621-1.0369-1.0608-2.081-2.1101-3.1386-3.1407-1.0522-1.0768-2.1141-2.1398-3.1875-3.1855-1.0522-1.0768-2.1121-2.1419-3.1856-3.1875-1.0547-1.0795-2.1192-2.1452-3.1953-3.1934-1.0569-1.0818-2.1227-2.1507-3.2012-3.2011-1.0594-1.0846-2.1279-2.1561-3.209-3.209-1.0619-1.0873-2.133-2.1613-3.2168-3.2168-1.0716-1.0973-2.1522-2.1812-3.2461-3.2461-1.0612-1.0864-2.1319-2.1602-3.2148-3.2149-1.0764-1.1023-2.163-2.19-3.2617-3.2597-1.0661-1.0915-2.1406-2.1691-3.2285-3.2285-1.0825-1.1088-2.1743-2.2036-3.2793-3.2793-1.0711-1.0968-2.151-2.1817-3.2442-3.2461-1.0798-1.1062-2.1691-2.1982-3.2715-3.2715-1.0832-1.1099-2.1772-2.2045-3.2832-3.2813-1.0855-1.1122-2.1808-2.21-3.289-3.289-1.0884-1.1153-2.1857-2.217-3.2969-3.2989-1.0906-1.1176-2.1912-2.2207-3.3047-3.3046-1.1005-1.1281-2.212-2.2402-3.3359-3.334-1.0961-1.123-2.2011-2.2311-3.3203-3.3203-1.0956-1.1226-2.2016-2.2295-3.3203-3.3184-1.0974-1.1248-2.2036-2.2373-3.3243-3.3281-1.1107-1.1387-2.2326-2.2613-3.3671-3.3652-1.1065-1.1341-2.2235-2.2539-3.3536-3.3535-1.1016-1.1292-2.2128-2.2429-3.3379-3.3379-1.1189-1.1475-2.2494-2.2784-3.3925-3.3906-1.1144-1.1425-2.2386-2.2714-3.377-3.3789-1.1134-1.1416-2.2376-2.2683-3.375-3.375-1.1224-1.151-2.2556-2.2849-3.4023-3.4004-1.1221-1.1507-2.254-2.2852-3.4004-3.4004-1.1208-1.1494-2.2515-2.2825-3.3965-3.3965-1.1394-1.1688-2.2887-2.3228-3.4531-3.4551-1.1147-1.1429-2.2403-2.271-3.3789-3.3789-1.1354-1.1651-2.2831-2.3126-3.4434-3.4414-1.1397-1.1695-2.2903-2.3222-3.4551-3.4551-1.1368-1.1663-2.2835-2.3174-3.4453-3.4473-1.1297-1.1592-2.2714-2.3006-3.4258-3.4238-1.1529-1.1837-2.3175-2.35-3.4961-3.4961-1.1451-1.1753-2.3021-2.3344-3.4726-3.4727-1.1406-1.1707-2.2933-2.325-3.459-3.459-1.1574-1.1884-2.3265-2.3592-3.5098-3.5098-1.1427-1.1731-2.2969-2.3286-3.4648-3.4648-1.1701-1.2018-2.3523-2.3856-3.5488-3.5488-1.1394-1.1696-2.2906-2.3221-3.4551-3.4551-1.1759-1.2083-2.3638-2.3992-3.5664-3.5684-1.1557-1.1868-2.3244-2.3549-3.5059-3.5039-1.1732-1.2053-2.3588-2.3922-3.5586-3.5586-1.1608-1.1923-2.3346-2.3673-3.5215-3.5215-1.1782-1.2107-2.3691-2.4028-3.5742-3.5742-1.174-1.206-2.3618-2.3935-3.5625-3.5606-1.1686-1.2005-2.348-2.383-3.5429-3.5449-1.1866-1.2195-2.3859-2.4199-3.5997-3.5996-1.1812-1.2138-2.3757-2.4096-3.5839-3.584-1.1842-1.2168-2.3825-2.4146-3.5938-3.5918-1.1864-1.2192-2.386-2.4202-3.5996-3.5996-1.1815-1.2143-2.3755-2.4111-3.584-3.5859-1.1917-1.2254-2.398-2.43-3.6172-3.6152-1.2017-1.2357-2.4168-2.4516-3.6465-3.6465-1.1969-1.2305-2.4062-2.4409-3.6308-3.6309-1.1922-1.2258-2.3975-2.4336-3.6172-3.6191-1.2096-1.2442-2.4339-2.4671-3.6719-3.6699-1.197-1.2308-2.4081-2.4425-3.6328-3.6328-1.2069-1.2416-2.427-2.4636-3.6621-3.6641-1.2179-1.253-2.4507-2.4843-3.6973-3.6953-1.2123-1.2469-2.4389-2.4743-3.6797-3.6797-1.2116-1.2463-2.4377-2.4729-3.6777-3.6777-1.2285-1.264-2.4708-2.5072-3.7285-3.7285-1.2203-1.255-2.4541-2.4902-3.7031-3.7031-1.2156-1.2503-2.4453-2.481-3.6895-3.6894-1.2172-1.2525-2.4494-2.4847-3.6953-3.6953-1.2356-1.272-2.4868-2.5212-3.7519-3.75-1.2272-1.263-2.4684-2.5042-3.7247-3.7246-1.2289-1.2651-2.4723-2.5101-3.7304-3.7324-1.2432-1.2801-2.5023-2.5371-3.7754-3.7734-1.2415-1.278-2.4982-2.5351-3.7695-3.7695-1.2186-1.2543-2.452-2.4869-3.6993-3.6992-1.2543-1.2926-2.5238-2.5625-3.8086-3.8106-1.2458-1.2833-2.5073-2.5438-3.7832-3.7832-1.2564-1.2944-2.5293-2.5648-3.8164-3.8144-1.2432-1.2803-2.5023-2.5388-3.7754-3.7754-1.2534-1.2915-2.5227-2.5596-3.8066-3.8066-1.2563-1.2945-2.5276-2.5666-3.8145-3.8164-1.2665-1.3052-2.55-2.5859-3.8476-3.8457-1.2618-1.3-2.5394-2.5752-3.832-3.8301-1.2562-1.2942-2.5278-2.5669-3.8145-3.8164-1.2745-1.3137-2.5651-2.6034-3.8711-3.8711-1.2612-1.2996-2.5381-2.5774-3.8301-3.832-1.2714-1.3108-2.5605-2.5963-3.8632-3.8613-1.2827-1.3225-2.582-2.6206-3.8965-3.8965-1.2769-1.3161-2.5705-2.609-3.8789-3.8789-1.2797-1.3192-2.5773-2.614-3.8887-3.8867-1.2819-1.3215-2.5808-2.6196-3.8945-3.8945-1.2845-1.3243-2.586-2.6248-3.9024-3.9023-1.2873-1.3273-2.5908-2.6318-3.9101-3.9121-1.2815-1.3214-2.5813-2.6177-3.8946-3.8926-1.2923-1.3332-2.6011-2.6418-3.9258-3.9277-1.3032-1.3446-2.6247-2.6625-3.9609-3.959-1.289-1.3295-2.5948-2.6355-3.916-3.918-1.3083-1.3501-2.6351-2.6731-3.9766-3.9746-1.3027-1.344-2.6233-2.6631-3.959-3.959-1.2933-1.3344-2.6038-2.6427-3.9296-3.9297-1.3116-1.354-2.6415-2.6811-3.9864-3.9863-19.209-19.83-41.988-34.346-68.355-46.166-26.793-11.087-54.511-16.629-83.152-16.629h-400.05l122.88 123.8h0.029l3.9512 3.9805h0.027l3.9433 3.9726h0.031l3.9336 3.9629h0.027l3.9277 3.957h0.031l3.918 3.9473h0.027l3.9121 3.9414h0.031l3.9023 3.9316h0.029l3.8945 3.9238h0.029l3.8867 3.916h0.029l3.8789 3.9082h0.029l3.8711 3.9004h0.029l3.8633 3.8926h0.029l3.8555 3.8848h0.029l3.8476 3.877h0.027l3.8398 3.8691h0.031l3.8301 3.8594h0.027l3.8242 3.8535h0.031l3.8144 3.8438h0.027l3.8086 3.8379h0.031l3.7988 3.8281h0.029l3.791 3.8203h0.029l3.7832 3.8125h0.029l3.7754 3.8047h0.027l3.7695 3.7969h0.027l3.7617 3.7891h0.025l3.7539 3.7812h0.027l3.7461 3.7734h0.029l3.7363 3.7637h0.025l3.7305 3.7578h0.029l3.7207 3.748h0.025l3.7148 3.7422h0.029l3.7051 3.7324h0.027l3.6973 3.7246h0.027l3.6894 3.7168h0.027l3.6816 3.709h0.027l3.6739 3.7012h0.027l3.666 3.6934h0.027l3.6582 3.6855h0.027l3.6504 3.6777h0.025l3.6426 3.6699h0.029l3.6328 3.6602h0.025l3.6269 3.6543h0.029l3.6172 3.6445h0.025l3.6113 3.6387h0.027l3.6015 3.6289h0.029l3.5938 3.6211h0.027l3.586 3.6133h0.027l3.5781 3.6055h0.027l2.7051 2.7266h-4.1875v-2.0371h-3.3184v-3.3184h-3.3262v-3.3262h-3.334v-3.334h-3.3437v-3.3438h-3.3496v-3.3496h-3.3594v-3.3594h-3.3672v-3.3652h-3.373v-3.375h-3.3828v-3.3828h-3.3907v-3.3906h-3.3984v-3.3984h-3.4063v-3.4062h-3.414v-3.4141h-3.4219v-3.4219h-3.4316v-3.4316h-3.4375v-3.4375h-3.4453v-3.4453h-3.4551v-3.4551h-3.4629v-3.4629h-3.4688v-3.4688h-3.4785v-3.4785h-3.4863v-3.4863h-3.4941v-3.4941h-3.502v-3.502h-3.5098v-3.5098h-3.5175v-3.5176h-3.5274v-3.5254h-3.5332v-3.5352h-3.541v-3.541h-3.5508v-3.5508h-3.5566v-3.5566h-3.5664v-3.5664h-3.5743v-3.5742h-3.58v-3.5801h-3.5899v-3.5898h-3.5976v-3.5977h-3.6055v-3.6055h-3.6133v-3.6133h-3.623v-3.623h-3.6289v-3.6289h-3.6368v-3.6367h-3.6464v-3.6465h-3.6524v-3.6523h-3.6621v-3.6621h-3.6699v-3.6699h-3.6758v-3.6758h-3.6855v-3.6856h-3.6934v-3.6934h-3.7012v-3.7012h-3.709v-3.709h-3.7168v-3.7168h-3.7265v-3.7266h-3.7324v-3.7324h-3.7403v-3.7402h-3.75v-3.75h-3.7578v-3.7559h-3.7637v-3.7656h-3.7734v-3.7734h-3.7812v-3.7793h-3.7891v-3.7891h-3.7949v-3.7969h-3.8047v-3.8047h-3.8125v-3.8125h-3.8223v-3.8223h-3.8281v-3.8281h-3.8359v-3.8359h-3.8457v-3.8457h-3.8516v-3.8516h-3.8613v-3.8613h-3.8692v-3.8691h-3.875v-3.875h-3.8847v-3.8848h-3.8926v-3.8926h-3.9004v-3.9004h-3.9082v-3.9082h-3.916v-3.916h-3.9258v-3.9258h-3.9317v-3.9316h-3.9394v-3.9394h-3.9492v-3.9492h-3.9551v-3.9551h-3.9648v-3.9648h-3.9727v-3.9727h-3.9785v-3.9785h-369.56v123.8 21.838h-1.5391v-3.6856h-3.6934v-3.6934h-3.7012v-3.7012h-3.709v-3.709h-3.7168v-3.7168h-3.7246v-3.7266h-3.7344v-3.7324h-3.7402v-3.7402h-3.748v-3.75h-3.7578v-3.7559h-3.7656v-3.7656h-3.7715v-3.7734h-3.7812v-3.7793h-3.7891v-3.7891h-3.7969v-3.7969h-3.8047v-3.8047h-3.8125v-3.8125h-3.8203v-3.8223h-3.8301v-3.8281h-3.8359v-3.8359h-3.8438v-3.8457h-3.8535v-3.8516h-3.8594v-3.8613h-3.8691v-3.8691h-3.877v-3.875h-3.8848v-3.8848h-3.8926v-3.8926h-3.9004v-3.9004h-3.9082v-3.9082h-3.916v-3.916h-3.9238v-3.9258h-3.9316v-3.9316h-3.9414v-3.9394h-3.9473v-3.9492h-3.957v-3.9551h-3.9648v-3.9648h-3.9707v-3.9727h-3.9805v-3.9785h-122.88v442.55l-491.52-442.55z" fill-opacity=".19608" clip-path="url(#clipPath16439)"/>
 </g>
 <g id="layer1" transform="translate(0 947.64)">
  <g id="flowRoot4224" fill="#fff" transform="matrix(5.1328 0 0 5.1328 20687 -2996.8)">
   <path id="path4239" d="m-3910 521.89v86.22l-95.76-86.22v36.36l119.7 107.64v-0.18-0.18-143.64h-23.94z"/>
   <path id="path4241" d="m-3858.1 521.89v24.12 119.88h24.12v-119.88h47.88v-24.12h-72z"/>
   <path id="path4243" d="m-3665.6 563.83c0-5.76-1.08-11.16-3.24-16.2-2.16-5.22-5.22-9.54-9-13.32-3.78-3.96-8.28-6.84-13.5-9.18-5.22-2.16-10.62-3.24-16.2-3.24h-77.94l23.94 24.12h54c2.34 0 4.68 0.36 6.84 1.26 2.34 0.9 4.32 2.16 5.94 3.96 1.62 1.62 2.88 3.6 3.78 5.76s1.44 4.5 1.44 6.84c0 2.52-0.54 4.86-1.44 7.02s-2.16 4.14-3.78 5.76c-1.62 1.8-3.6 3.06-5.94 3.96-2.16 1.08-4.5 1.44-6.84 1.44h-54-9.54-14.4v23.94h23.94 54c2.52 0 4.86 0.54 7.2 1.44 2.16 0.9 3.96 2.34 5.58 3.96s2.88 3.6 3.78 5.76 1.44 4.5 1.44 6.84-0.54 4.68-1.44 6.84-2.16 4.14-3.78 5.76c-1.62 1.8-3.6 3.06-5.94 3.96-2.16 0.9-4.5 1.26-6.84 1.26h-54v24.12h54c5.76 0 11.16-1.08 16.2-3.24 5.22-2.34 9.72-5.22 13.5-9.18 3.78-3.78 6.84-8.1 9-13.32 2.16-5.04 3.24-10.44 3.24-16.2 0-11.88-4.14-21.96-12.6-30.06 8.46-8.28 12.6-18.36 12.6-30.06z"/>
  </g>
 </g>
</svg>
